# xmcd CD database file
#
# Track frame offsets:
#	150
#	1587
#	19575
#	25725
#	42492
#	47720
#	72027
#	86560
#	110890
#	132585
#	136047
#	160247
#	183955
#	202470
#	208372
#	222050
#	225330
#	229337
#	249305
#	265897
#	286815
#
# Disc length: 4585 seconds
#
# Revision: 0
# Processed by: cddbd v1.5.2PL0 Copyright (c) Steve Scherf et al.
# Submitted via: CDex 1.70beta2
#
DISCID=2911e715
DTITLE=Kanye West - The College Dropout
DYEAR=2004
DGENRE=Rap
TTITLE0=Intro
TTITLE1=We Don't Care
TTITLE2=Graduation Day
TTITLE3=All Falls Down feat. Syleena Johnson
TTITLE4=I'll Fly Away
TTITLE5=Spaceship feat. GLC and Consequence
TTITLE6=Jesus Walks
TTITLE7=Never Let Me Down feat. Jay-Z and J. Ivy
TTITLE8=Get Em High feat. Talib Kweli and Common
TTITLE9=Workout Plan
TTITLE10=The New Workout Plan
TTITLE11=Slow Jamz feat. Twista and Jamie Foxx
TTITLE12=Breathe In Breathe Out feat. Ludacris
TTITLE13=School Spirit Skit 1
TTITLE14=School Spirit
TTITLE15=School Spirit Skit 2
TTITLE16=Lil Jimmy Skit
TTITLE17=Two Words feat. Mos Def, Freeway and The Harlem Boys Choir
TTITLE18=Through The Wire
TTITLE19=Family Business
TTITLE20=Last Call
EXTD=YEAR: 2004
EXTT0=
EXTT1=
EXTT2=
EXTT3=
EXTT4=
EXTT5=
EXTT6=
EXTT7=
EXTT8=
EXTT9=
EXTT10=
EXTT11=
EXTT12=
EXTT13=
EXTT14=
EXTT15=
EXTT16=
EXTT17=
EXTT18=
EXTT19=
EXTT20=
PLAYORDER=
